<svg xmlns="http://www.w3.org/2000/svg" xmlns:xlink="http://www.w3.org/1999/xlink" width="82" height="81" viewBox="0 0 82 81">
    <defs>
        <linearGradient id="prefix__c" x1="60.783%" x2="2.011%" y1="-13.932%" y2="-13.932%">
            <stop offset="0%" stop-color="#FFF"/>
            <stop offset="100%" stop-color="#DFE5F5"/>
        </linearGradient>
        <linearGradient id="prefix__d" x1="113.804%" x2="113.804%" y1="39.889%" y2="98.66%">
            <stop offset="0%" stop-color="#FFF"/>
            <stop offset="100%" stop-color="#DFE5F5"/>
        </linearGradient>
        <path id="prefix__a" d="M0 1.143C-.001.838.122.545.342.33c.22-.215.52-.334.83-.33h36.392c.307-.004.603.112.823.323.22.21.345.498.35.8v21.932c-.01.63-.533 1.134-1.173 1.128H1.172C.532 24.19.008 23.684 0 23.055V1.143z"/>
    </defs>
    <g fill="none" fill-rule="evenodd" transform="translate(1 1)">
        <rect width="63.806" height="62.76" x="8.041" y="8.32" fill="#D0E299" fill-rule="nonzero" rx="6.699"/>
        <rect width="79.572" height="79.094" x=".158" y=".155" stroke="#6F6F6E" stroke-width="1.001" rx="20"/>
        <path fill="#8560A8" fill-rule="nonzero" d="M20.566 51.298h15.48c-.775 3.243-2.456 5.869-4.657 7.262h-1.952c-1.126 0-2.038.898-2.038 2.005 0 1.107.912 2.005 2.038 2.005h21.009c1.126 0 2.038-.898 2.038-2.005 0-1.107-.912-2.005-2.038-2.005h-1.947c-2.2-1.393-3.882-4.01-4.652-7.262h15.475c1.24-.003 2.245-.99 2.247-2.21V25.23c-.002-1.22-1.007-2.207-2.247-2.21H20.566c-1.23.017-2.22 1-2.222 2.21v23.858c.003 1.21.992 2.193 2.222 2.21zm30.899 9.257c0 .554-.456 1.002-1.02 1.002H29.438c-.563 0-1.02-.448-1.02-1.002s.457-1.002 1.02-1.002h21.009c.563 0 1.019.448 1.019 1.002zm-4.627-2.005H33.034c1.921-1.664 3.353-4.225 4.036-7.262h5.733c.698 3.047 2.135 5.608 4.076 7.272l-.04-.01z"/>
        <g transform="translate(20.576 25.06)">
            <mask id="prefix__b" fill="#fff">
                <use xlink:href="#prefix__a"/>
            </mask>
            <use fill="#FDD170" fill-rule="nonzero" xlink:href="#prefix__a"/>
            <g fill-rule="nonzero" mask="url(#prefix__b)">
                <g>
                    <path fill="#964B93" d="M12.739 30.152c4.943 0 9.36-3.062 12.265-7.869-.443-.957-.907-1.88-1.376-2.706-.035-.115-.08-.228-.132-.336-.46-.904-1.08-1.72-1.835-2.406-.01-.013-.022-.024-.036-.035l-.086-.08-.056-.05c-1.273-1.091-2.762-1.912-4.372-2.41-.316-.106-.637-.193-.963-.261-.996-.266-2.026-.39-3.058-.371h-.657c-.543-.008-1.086.02-1.625.085-.255.03-.51.07-.744.12-2.966.556-6.543 2.17-7.914 5.163C1.53 20.045.964 21.126.46 22.233c2.904 4.832 7.337 7.92 12.3 7.92" transform="translate(6.43 4.51)"/>
                    <path fill="#E77C05" d="M14.726 11.317c-.208-.917-.262-1.862-.158-2.797h-3.76c.106.943.053 1.897-.158 2.822-.27.967-.778 1.853-1.478 2.581 1.037.675 2.263 1.015 3.506.973 1.243.042 2.468-.298 3.505-.973-.7-.736-1.203-1.632-1.467-2.606" transform="translate(6.43 4.51)"/>
                    <path fill="#FABD68" d="M12.688.917C7.674.842 8.61 7.032 9.458 9.037c.845 2.004 1.844 3.007 3.23 3.007s2.405-.972 3.23-3.007c.826-2.035 1.784-8.195-3.23-8.12" transform="translate(6.43 4.51)"/>
                    <path fill="#964B93" d="M16.943 2.872c-.046-.15-.097-.3-.153-.441-.581-1.429-1.88-2.326-4.077-2.326C9.6.105 8.301 1.865 8.25 4.37v.547c.014.388.055.775.122 1.158 0 .1.036.2.056.3.02.1.036.2.061.301.208.653.469 1.288.78 1.9.05-.566.05-1.134 0-1.7v-.395c0-1.454.474-2.822 1.865-3.379.181-.106.379-.182.586-.225 2.323-.501 3.475 0 3.475 0s.78.551.907 2.426c.01.076.01.154 0 .23 0 .18.04.361.05.547.042.907-.111 1.91 0 2.506.312-.612.572-1.247.78-1.9.046-.2.082-.4.118-.601.035-.2.06-.396.081-.587.162-.872.108-1.77-.158-2.616" transform="translate(6.43 4.51)"/>
                    <path fill="#964B93" d="M15.45 2.34c-.27.78-.748 1.473-1.386 2.005-.943.672-5.096.326-5.096.326s0-2.456 2.247-3.082c2.247-.627 4.255.757 4.255.757" transform="translate(6.43 4.51)"/>
                    <path fill="url(#prefix__c)" d="M8.981 12.569L12.581 12.579 12.593 16.898 8.992 16.888z" transform="translate(6.43 4.51) rotate(-80.54 10.787 14.733)"/>
                    <path fill="url(#prefix__d)" d="M12.494 12.93L16.814 12.941 16.823 16.541 12.504 16.53z" transform="translate(6.43 4.51) rotate(-9.46 14.659 14.735)"/>
                </g>
            </g>
        </g>
        <path fill="#6BBFAC" fill-rule="nonzero" d="M54.583 40.347h-5.992c-.948-.017-1.71-.776-1.712-1.71v-8.244c.003-.943.78-1.707 1.738-1.71h5.365c.959.003 1.735.767 1.738 1.71v8.856c0 .604-.497 1.095-1.111 1.098"/>
        <path fill="#EF827A" fill-rule="nonzero" d="M48.683 30.824H53.87V31.824H48.683zM48.683 33.084H53.87V34.084H48.683zM48.683 35.254H53.87V36.254H48.683zM48.683 37.52H53.87V38.52H48.683z"/>
        <path fill="#FFF" fill-rule="nonzero" d="M39.944 49.744c-.282.027-.497.26-.497.539s.215.512.497.539c.208.02.41-.079.52-.253.11-.175.11-.397 0-.572-.11-.174-.312-.273-.52-.253zm0 .917c-.214 0-.387-.17-.387-.38s.173-.381.387-.381c.214 0 .387.17.387.38s-.173.381-.387.381z"/>
        <path fill="#FFFBD4" fill-rule="nonzero" d="M19.2 19.797v5.138c0 1.623 1.336 2.939 2.986 2.942h6.16l4.077 4.36c.095.1.227.159.367.16.063.002.125-.01.183-.034.193-.076.32-.258.321-.462v-4.01h1.356c1.65-.002 2.986-1.318 2.986-2.941v-5.153c-.003-1.62-1.338-2.934-2.986-2.937H22.186c-1.648.003-2.983 1.316-2.986 2.937z"/>
        <path fill="#EF827A" fill-rule="nonzero" d="M23.842 21.326h9.131c.282 0 .51-.224.51-.501s-.228-.501-.51-.501h-9.131c-.281 0-.51.224-.51.5 0 .278.229.502.51.502zM31.546 23.145H25.27c-.282 0-.51.225-.51.502 0 .276.228.5.51.5h6.277c.282 0 .51-.224.51-.5 0-.277-.228-.502-.51-.502z"/>
    </g>
</svg>
